<svg xmlns="http://www.w3.org/2000/svg" viewBox="0 0 266.43 245.63"><defs><style>.cls-1{fill:#1d1d1b;}</style></defs><g id="Layer_2" data-name="Layer 2"><g id="Livello_1" data-name="Livello 1"><path class="cls-1" d="M230.56,72.64c17.79,0,35.57,12.35,35.57,36.46,0,19-13.56,35.87-34.66,35.87-23.51,0-34.36-17.48-34.36-33.46,0-15.07,9.64-23.5,9.95-24.71-20.8,8.74-31.35,42.2-35.27,53.65C188.07,158.53,219.41,189,241.41,189c6.94,0,22.61-3.31,22.61-24.41,0-3.32-.6-6.33-.6-8.74h2.11a66.19,66.19,0,0,1,.9,10.85c0,36.47-30.74,76.25-67.51,76.25-22.3,0-41.29-14.46-62.39-35.26-21.1,28-46.11,38-69.62,38C28.63,245.63,0,221.52,0,187.77,0,157,20.49,129,62.09,111.21,52.44,97.05,46.41,81.07,46.41,64.8,46.41,30.74,76,0,110.31,0,136.53,0,179,4.82,179,36.47,179,56.66,160.94,76,130.2,86.8c10,15.67,21.4,32.25,39.18,50.94C181.74,96.44,206.15,72.64,230.56,72.64Zm-167.27,41c-8.44,3.32-17.48,6-17.48,17.79,0,16.87,17.18,44.6,29.24,60C85,204,104.28,222.13,114.53,222.13c7.53,0,14.16-9.35,19.59-16.28C106.39,175.71,84.09,144.37,63.29,113.62Zm79.87-43.4c0-14.16-17.48-49.73-24.11-58.77-4.82-6.33-9-9.34-13.26-9.34-5.13,0-12.36,4.22-12.36,11.45,0,17.18,27.13,59.68,35.57,71.13C131.71,83.79,143.16,79.57,143.16,70.22Z"/></g></g></svg>