<svg xmlns="http://www.w3.org/2000/svg" viewBox="0 0 200.43 212.18"><defs><style>.cls-1{fill:#1d1d1b;}</style></defs><g id="Layer_2" data-name="Layer 2"><g id="Livello_1" data-name="Livello 1"><path class="cls-1" d="M167.88,182.64c0,20.8-15.68,29.54-32.25,29.54H53.05c-37.38,0-53-22.91-53-55.46C0,129,15.07,110,41.59,106.09,15.07,102.17,0,84.09,0,56.36,0,23.81,15.67,0,53.65,0H80.17C98,0,106.69,10,106.69,29.54s-9,29.53-26.82,29.53H74.14q-11.74,0-11.75,9c0,5.73,3.92,8.74,11.75,8.74h35.27V72c0-19.29,13.26-28.93,29.23-28.93,15.67,0,29.24,9.64,29.24,28.93v4.82H173c18.38,0,27.43,9.65,27.43,29.24s-9.35,29.54-28,29.54h-4.52Zm-93.74-47q-11.74,0-11.75,9c0,5.73,3.92,8.74,11.75,8.74h35.27V135.63Z"/></g></g></svg>