<svg xmlns="http://www.w3.org/2000/svg" viewBox="0 0 255.22 309.87"><defs><style>.cls-1{fill:#1d1d1b;}</style></defs><g id="Layer_2" data-name="Layer 2"><g id="Livello_1" data-name="Livello 1"><path class="cls-1" d="M197.93,193.22c32-15.41,52.55-45,48.2-83.36h3.56c15.8,52.94-2.37,104.29-53.33,114.17-7.12,53.73-44.25,88.1-101.53,85.73-60-2.37-95.6-41.88-94.82-85.34.4-26.47,14.62-54.9,45.44-76.24C28.07,123.69,19.37,92.87,19.77,66c.4-36.74,18.57-67.16,55.7-66,28.05.8,45.83,17.79,44.64,51-1.18,35.16-23.31,68-66.76,98,43.06,50.57,95.61,63.61,139.06,46.22,0-22.91,5.92-49.38,17.78-62.42l3.15,1.19C202.68,146.21,197.15,167.54,197.93,193.22ZM92.85,280.13c51.36,2,91.26-21.33,98-54.91-23.71,2.36-49.39-2.37-73.09-15s-47-32-68.74-57.68c-26.86,19-39.9,42.66-40.29,64C7.92,249.71,37.94,278.15,92.85,280.13ZM73.11,29.66c-32.8-1.18-46.62,18.18-47,43.86-.4,22.12,9.09,49,24.49,71.5,37.14-25.28,60.84-59.26,61.23-84.14C112.21,43.49,101.15,30.46,73.11,29.66Z"/></g></g></svg>