<svg xmlns="http://www.w3.org/2000/svg" viewBox="0 0 218.29 275.13"><defs><style>.cls-1{fill:#1d1d1b;}</style></defs><g id="Layer_2" data-name="Layer 2"><g id="Livello_1" data-name="Livello 1"><path class="cls-1" d="M0,54.58Q0,32.46,18.83,16.23,29.51,7,51.58,3.07a204.12,204.12,0,0,1,45-2.85,286.78,286.78,0,0,1,43.31,5.15q20.4,4.11,29,10,25.74,18.3,26.58,45.23a62.35,62.35,0,0,1-4.61,23.87A106.11,106.11,0,0,1,179.64,106a156.66,156.66,0,0,1-15.49,18.82q-9.1,9.58-14.65,14.41t-11.19,9.26q-11.31,8-13.18,9.05,14.07,13.2,17.22,15.72,17-20.73,34.56-29.92l13.32,25.25q-12.28,6.68-26.46,23.58,33.76,28.57,54.52,38.39l-12.37,25.66Q182,245.36,146.55,215,139,225.86,134,232.57t-12.71,15.2A89.93,89.93,0,0,1,105.07,262a79.32,79.32,0,0,1-18,9.12q-12.39,4-20.16,4a35,35,0,0,1-22.22-7.72Q24.39,249.88,33,204.14q3.57-20.46,14.26-32.36T74.72,151.1Q67.16,143.81,51,130.64.41,88.3,0,54.58Zm28.73.27q0,20.25,40.74,53.45,22.26,19.22,33.18,29,6.51-3.54,18.06-11.48a167.51,167.51,0,0,0,32.66-32.16q13.55-17.75,13.34-31.53-.63-12.52-14.07-21.71Q148,37.1,132.16,33.86A219.8,219.8,0,0,0,95.3,30H87.11q-39.27,0-49.77,9Q27.68,47.13,28.73,54.85ZM59.08,228.78a49.14,49.14,0,0,0,1.46,11.49q1.16,3.75,2.63,5,2.94,2.5,14.49-1.05,8.4-3.12,17.22-11.17A125.12,125.12,0,0,0,109,218.34q5.25-6.68,14.92-20.25a6.26,6.26,0,0,0,.63-.84,5.39,5.39,0,0,1,.63-.83q-26.68-24-27.52-24.85-18.48,9-26.25,16.28t-10.5,21.93A87.25,87.25,0,0,0,59.08,228.78Z"/></g></g></svg>